<svg xmlns="http://www.w3.org/2000/svg" width="65" height="23" viewBox="0 0 65 23">
  <g id="グループ_103" data-name="グループ 103" transform="translate(-468 -1109)">
    <g id="合体_1" data-name="合体 1" transform="translate(468 1109)" fill="#fff">
      <path d="M 32.49990081787109 21.98052215576172 L 30.12300109863281 17.75486946105957 L 29.97964096069336 17.5 L 29.68721008300781 17.5 L 0.5000008344650269 17.5 L 0.5000008344650269 0.5000002980232239 L 64.49980163574219 0.5000002980232239 L 64.49980163574219 17.5 L 35.31259155273438 17.5 L 35.02016067504883 17.5 L 34.87680053710938 17.75486946105957 L 32.49990081787109 21.98052215576172 Z" stroke="none"/>
      <path d="M 32.49990081787109 20.96064567565918 L 34.72774124145508 17 L 63.99980163574219 17 L 63.99980163574219 1.000000238418579 L 1.000000834465027 1.000000238418579 L 1.000000834465027 17 L 30.27206039428711 17 L 32.49990081787109 20.96064567565918 M 32.49990081787109 23.00040054321289 L 29.68721008300781 18 L 8.178710686479462e-07 18 L 8.178710686479462e-07 2.716064386731887e-07 L 64.99980163574219 2.716064386731887e-07 L 64.99980163574219 18 L 35.31259155273438 18 L 32.49990081787109 23.00040054321289 Z" stroke="none" fill="#707070"/>
    </g>
    <path id="パス_12" data-name="パス 12" d="M7.4-.65v.6h.96a6.409,6.409,0,0,1-.05-.99V-6.23c0-.38,0-.55.02-.79-.25.01-.4.02-.52.02H2.96a6.251,6.251,0,0,1-1.24-.07v.95a9.377,9.377,0,0,1,1.23-.05H7.41v4.69H2.75a5.744,5.744,0,0,1-1.18-.07v.94A10.128,10.128,0,0,1,2.74-.65ZM18.77-8.56a1.139,1.139,0,0,0-1.14,1.14,1.139,1.139,0,0,0,1.14,1.14,1.139,1.139,0,0,0,1.14-1.14A1.139,1.139,0,0,0,18.77-8.56Zm0,.44a.709.709,0,0,1,.7.7.709.709,0,0,1-.7.7.709.709,0,0,1-.7-.7A.709.709,0,0,1,18.77-8.12ZM12.82-6.65a6.618,6.618,0,0,1,.06-.99h-.99a6.344,6.344,0,0,1,.05.98v4.5a6.715,6.715,0,0,0,.03.82,1.323,1.323,0,0,0,.43.97,3.751,3.751,0,0,0,2.27.42,30,30,0,0,0,3.17-.19,2.5,2.5,0,0,1,.44-.04l-.06-.95a5.823,5.823,0,0,1-1.01.2,19.51,19.51,0,0,1-2.32.17c-1.07,0-1.68-.1-1.88-.31-.15-.16-.19-.37-.19-1.05V-3.7a14.4,14.4,0,0,0,1.93-.47,17.127,17.127,0,0,0,2.9-1.22,2.966,2.966,0,0,1,.44-.22l-.6-.81a5.831,5.831,0,0,1-1.54.9,13.512,13.512,0,0,1-3.13,1.01Zm7.11,3.32a10.925,10.925,0,0,1,1.39-.05h5.6a11.683,11.683,0,0,1,1.36.05v-.99a8.183,8.183,0,0,1-1.35.06H21.31a10.909,10.909,0,0,1-1.38-.06ZM34.58-6.76c-1.12.03-1.56.04-2.41.07-1.51.06-1.57.06-1.84.06-.15,0-.23,0-.43-.01l.03.86c.62-.1,2.95-.23,4.66-.26,0,.55.01,1.07.02,1.16v.07a1.506,1.506,0,0,0-1.11-.4,1.725,1.725,0,0,0-1.85,1.7,1.617,1.617,0,0,0,1.7,1.63,1.628,1.628,0,0,0,1.26-.52,1.591,1.591,0,0,0,.27-.44,2.244,2.244,0,0,1-.29,1.01A3.653,3.653,0,0,1,32.1-.21a2.575,2.575,0,0,1,.51.77,6.453,6.453,0,0,0,1.65-.81,3.145,3.145,0,0,0,1.37-2.64,2.9,2.9,0,0,0-.25-1.24V-6.05c.8-.01.97-.01,1.11-.01a17.354,17.354,0,0,1,1.84.05v-.84c-.33.04-1.09.06-2.96.07a8.576,8.576,0,0,1,.05-1.31h-.9a4.484,4.484,0,0,1,.05.58ZM33.57-4.54a1.131,1.131,0,0,1,.79.29.672.672,0,0,1,.2.53,1.058,1.058,0,0,1-1.11,1.1.922.922,0,0,1-.98-.95A1.018,1.018,0,0,1,33.57-4.54Zm7.85-2.12a4.981,4.981,0,0,1,.53-.05c1.46-.06,2.59-.12,2.96-.18a.22.22,0,0,0,.08-.01l.01.02-.11.11-.08.08a32.531,32.531,0,0,1-4.65,3.85l.51.76a6.351,6.351,0,0,1,4.2-1.7c1.31,0,2.1.55,2.1,1.47a1.529,1.529,0,0,1-.68,1.28,2.407,2.407,0,0,1-.82.38,2.8,2.8,0,0,0-.45-.95,2.051,2.051,0,0,0-1.67-.82,1.37,1.37,0,0,0-1.53,1.24,1.364,1.364,0,0,0,.3.84,2.6,2.6,0,0,0,2.03.65c2.21,0,3.68-1.06,3.68-2.64,0-1.3-1.08-2.14-2.76-2.14a4.893,4.893,0,0,0-2.35.58l-.02-.04a24.019,24.019,0,0,0,3.23-2.73,1.806,1.806,0,0,1,.51-.42l-.48-.65a1.012,1.012,0,0,1-.52.12c-.89.07-2.21.13-3.05.13a5.293,5.293,0,0,1-1.01-.06ZM44.69-.45a3.483,3.483,0,0,1-.66.06c-.87,0-1.42-.3-1.42-.77,0-.35.29-.57.74-.57C44.03-1.73,44.48-1.29,44.69-.45Z" transform="translate(477 1122)" fill="#4d4d4d"/>
  </g>
</svg>
